<svg width="25" height="25" viewBox="0 0 25 25" fill="none" xmlns="http://www.w3.org/2000/svg">
<path d="M12.8906 2.80998C18.4618 2.80998 22.9713 7.3186 22.9713 12.8906C22.9713 18.4618 18.4627 22.9713 12.8906 22.9713C7.31946 22.9713 2.80998 18.4627 2.80998 12.8906C2.80998 7.31946 7.3186 2.80998 12.8906 2.80998ZM12.8906 0.390625C5.98705 0.390625 0.390625 5.98705 0.390625 12.8906C0.390625 19.7942 5.98705 25.3906 12.8906 25.3906C19.7942 25.3906 25.3906 19.7942 25.3906 12.8906C25.3906 5.98705 19.7942 0.390625 12.8906 0.390625ZM12.8906 8.85837C10.6637 8.85837 8.85837 10.6637 8.85837 12.8906C8.85837 15.1176 10.6637 16.9229 12.8906 16.9229C15.1176 16.9229 16.9229 15.1176 16.9229 12.8906C16.9229 10.6637 15.1176 8.85837 12.8906 8.85837Z" fill="#197F37"/>
</svg>
